HIERARCHY
ROOT Hips
{
	OFFSET 0.000000 0.000000 0.000000
	CHANNELS 6 Xposition Yposition Zposition Xrotation Yrotation Zrotation
	JOINT LeftUpLeg_virtual
	{
		OFFSET 0.000000 0.000000 0.000000
		CHANNELS 3 Xrotation Yrotation Zrotation
		JOINT LeftUpLeg
		{
			OFFSET 13.026900 -6.336304 -1.092800
			CHANNELS 3 Xrotation Yrotation Zrotation
			JOINT LeftLeg
			{
				OFFSET 0.524474 -46.096886 9.782700
				CHANNELS 3 Xrotation Yrotation Zrotation
				JOINT LeftFoot
				{
					OFFSET -0.524474 -53.427422 -12.948200
					CHANNELS 3 Xrotation Yrotation Zrotation
					JOINT LeftToeBase
					{
						OFFSET 0.192200 -14.009700 16.364100
						CHANNELS 3 Xrotation Yrotation Zrotation
						JOINT LeftToe_End
						{
							OFFSET -1.784700 -0.561700 9.474800
							CHANNELS 3 Xrotation Yrotation Zrotation
							End Site
							{
								OFFSET 0 0 0
							}
						}
					}
				}
			}
		}
	}
	JOINT RightUpLeg_virtual
	{
		OFFSET 0.000000 0.000000 0.000000
		CHANNELS 3 Xrotation Yrotation Zrotation
		JOINT RightUpLeg
		{
			OFFSET -12.883000 -6.336304 -1.092800
			CHANNELS 3 Xrotation Yrotation Zrotation
			JOINT RightLeg
			{
				OFFSET -0.524587 -46.096825 9.782800
				CHANNELS 3 Xrotation Yrotation Zrotation
				JOINT RightFoot
				{
					OFFSET 0.524587 -53.427383 -12.948300
					CHANNELS 3 Xrotation Yrotation Zrotation
					JOINT RightToeBase
					{
						OFFSET -0.192200 -14.009700 16.364100
						CHANNELS 3 Xrotation Yrotation Zrotation
						JOINT RightToe_End
						{
							OFFSET 1.784700 -0.561700 9.474800
							CHANNELS 3 Xrotation Yrotation Zrotation
							End Site
							{
								OFFSET 0 0 0
							}
						}
					}
				}
			}
		}
	}
	JOINT Spine_virtual
	{
		OFFSET 0.000000 0.000000 0.000000
		CHANNELS 3 Xrotation Yrotation Zrotation
		JOINT Spine
		{
			OFFSET 0.072000 7.257294 -0.789700
			CHANNELS 3 Xrotation Yrotation Zrotation
			JOINT Spine1
			{
				OFFSET 0.000000 12.508769 -0.658067
				CHANNELS 3 Xrotation Yrotation Zrotation
				JOINT Spine1_split
				{
					OFFSET 0.000000 12.508769 -0.658067
					CHANNELS 3 Xrotation Yrotation Zrotation
					JOINT Spine2
					{
						OFFSET 0.000000 12.508769 -0.658067
						CHANNELS 3 Xrotation Yrotation Zrotation
						JOINT Neck_virtual
						{
							OFFSET 0.000000 0.000000 0.000000
							CHANNELS 3 Xrotation Yrotation Zrotation
							JOINT Neck
							{
								OFFSET 0.000000 14.033295 7.520400
								CHANNELS 3 Xrotation Yrotation Zrotation
								JOINT Head
								{
									OFFSET 0.000000 8.198502 5.703100
									CHANNELS 3 Xrotation Yrotation Zrotation
									JOINT HeadTop_End
									{
										OFFSET 0.000000 17.760803 13.332701
										CHANNELS 3 Xrotation Yrotation Zrotation
										End Site
										{
											OFFSET 0 0 0
										}
									}
								}
							}
						}
						JOINT LeftShoulder_virtual
						{
							OFFSET 0.000000 0.000000 0.000000
							CHANNELS 3 Xrotation Yrotation Zrotation
							JOINT LeftShoulder
							{
								OFFSET 6.292450 5.785301 -0.669000
								CHANNELS 3 Xrotation Yrotation Zrotation
								JOINT LeftShoulder_split
								{
									OFFSET 6.292450 5.785301 -0.669000
									CHANNELS 3 Xrotation Yrotation Zrotation
									JOINT LeftArm
									{
										OFFSET 13.907140 -6.093903 1.965100
										CHANNELS 3 Xrotation Yrotation Zrotation
										JOINT LeftForeArm
										{
											OFFSET 34.140198 0.000000 0.000000
											CHANNELS 3 Xrotation Yrotation Zrotation
											JOINT LeftHand
											{
												OFFSET 40.960209 0.000000 0.000000
												CHANNELS 3 Xrotation Yrotation Zrotation
												End Site
												{
													OFFSET 0 0 0
												}
											}
										}
									}
								}
							}
						}
						JOINT RightShoulder_virtual
						{
							OFFSET 0.000000 0.000000 0.000000
							CHANNELS 3 Xrotation Yrotation Zrotation
							JOINT RightShoulder
							{
								OFFSET -6.292450 5.785301 -0.669000
								CHANNELS 3 Xrotation Yrotation Zrotation
								JOINT RightShoulder_split
								{
									OFFSET -6.292450 5.785301 -0.669000
									CHANNELS 3 Xrotation Yrotation Zrotation
									JOINT RightArm
									{
										OFFSET -13.907140 -6.093903 1.965100
										CHANNELS 3 Xrotation Yrotation Zrotation
										JOINT RightForeArm
										{
											OFFSET -34.140198 0.000000 0.000000
											CHANNELS 3 Xrotation Yrotation Zrotation
											JOINT RightHand
											{
												OFFSET -40.960209 0.000000 0.000000
												CHANNELS 3 Xrotation Yrotation Zrotation
												End Site
												{
													OFFSET 0 0 0
												}
											}
										}
									}
								}
							}
						}
					}
				}
			}
		}
	}
}
MOTION
Frames: 10
Frame Time: 0.03333333
0.317974 115.127281 -0.530041 0.000000 0.000000 0.000000 0.478311 -7.866888 -1.108339 -14.164735 19.797448 15.714375 18.822021 8.647970 2.331049 -4.879587 4.160843 -13.468367 1.341024 0.235691 -1.048980 0.000000 0.000000 0.000000 0.984588 -7.077750 -1.051401 -21.570622 -20.012502 -9.021329 21.227979 7.113889 -3.098842 -2.571788 1.109256 3.433237 -1.039628 0.053794 0.879386 0.000000 0.000000 0.000000 0.673424 -9.576379 -1.251660 -0.591350 -0.541144 2.085502 -0.907696 -1.115355 1.015507 1.352789 1.454534 -0.370525 0.000000 0.000000 0.000000 -1.145854 -0.497445 0.910348 -5.277263 0.419442 1.339981 -1.150533 8.206177 0.361562 0.000000 0.000000 0.000000 -1.403769 -0.198385 0.582312 -0.549382 9.977958 -2.878754 -3.621940 -0.214164 -0.464060 41.898272 -65.595238 -28.000571 -0.476252 -27.976112 2.093653 0.000000 0.000000 0.000000 -0.311072 -0.326904 0.448813 3.944242 2.591626 3.414391 0.951039 2.379315 -1.253530 -2.367920 37.964340 66.075796 1.261019 25.189403 1.426890 0.000000 0.000000 0.000000 
0.341751 115.145004 -0.324459 0.000000 0.000000 0.000000 0.449277 -8.026455 -1.054349 -14.142274 19.830689 15.631260 18.681078 8.639612 2.366719 -5.006778 4.151972 -13.471479 1.361519 0.215022 -1.007267 0.000000 0.000000 0.000000 1.073192 -7.226271 -0.986407 -21.511213 -19.964097 -8.996965 21.225180 7.072676 -3.114267 -2.554316 1.029152 3.135205 -1.095792 0.031666 0.955039 0.000000 0.000000 0.000000 0.719428 -9.597399 -1.289647 -0.657037 -0.589153 2.112951 -0.870303 -1.121952 1.015518 1.376843 1.376177 -0.315069 0.000000 0.000000 0.000000 -1.148486 -0.495194 0.937607 -5.401998 0.544644 1.220088 -1.206439 8.419091 0.409745 0.000000 0.000000 0.000000 -1.321522 -0.203302 0.590945 -0.528020 9.984540 -2.972616 -3.859758 -0.131630 -0.282349 42.122641 -65.619581 -27.864827 -0.355054 -28.204149 2.108988 0.000000 0.000000 0.000000 -0.280500 -0.303150 0.483571 3.918689 2.740378 2.998932 1.181040 2.851368 -1.462179 -2.918294 37.908226 66.493114 1.116883 25.084146 1.340320 0.000000 0.000000 0.000000 
0.429763 115.147903 -0.154991 0.000000 0.000000 0.000000 0.488321 -8.311005 -0.914844 -13.997567 19.935244 15.440800 18.519670 8.662826 2.440035 -5.117588 4.166883 -13.380738 1.371052 0.193559 -0.973768 0.000000 0.000000 0.000000 1.122380 -7.374184 -0.854530 -21.621649 -19.837403 -9.136233 21.509275 7.022751 -3.134443 -2.649330 1.004737 2.801879 -1.148803 0.023169 1.006606 0.000000 0.000000 0.000000 0.744283 -9.748949 -1.245546 -0.714244 -0.661469 2.105164 -0.807320 -1.151120 1.019992 1.315853 1.120553 -0.363499 0.000000 0.000000 0.000000 -1.066634 -0.506786 0.955917 -5.602090 0.687606 0.944315 -1.198321 8.658226 0.346957 0.000000 0.000000 0.000000 -1.171201 -0.243983 0.601640 -0.514250 10.034598 -2.975708 -3.921020 -0.079727 -0.195672 41.823263 -65.831522 -28.243988 -0.303795 -28.499024 2.014145 0.000000 0.000000 0.000000 -0.220946 -0.306764 0.533897 3.874748 2.886786 2.374854 1.017908 3.293706 -1.602777 -3.574696 38.733088 67.042507 0.948365 23.877313 1.161978 0.000000 0.000000 0.000000 
0.575100 115.128326 -0.040031 0.000000 0.000000 0.000000 0.570530 -8.629300 -0.694715 -13.791518 20.115775 15.165434 18.349168 8.717069 2.538650 -5.178433 4.204281 -13.170627 1.388364 0.173126 -0.965140 0.000000 0.000000 0.000000 1.167455 -7.496178 -0.651358 -21.951699 -19.656806 -9.460544 22.034911 7.017987 -3.145380 -2.761299 1.093669 2.627480 -1.212482 0.034443 1.019907 0.000000 0.000000 0.000000 0.735987 -9.961251 -1.113306 -0.739216 -0.718762 2.067403 -0.717263 -1.181763 1.014403 1.166803 0.754265 -0.424608 0.000000 0.000000 0.000000 -0.936184 -0.517322 0.943306 -5.864091 0.799190 0.608682 -1.146008 8.881755 0.184030 0.000000 0.000000 0.000000 -0.972081 -0.297077 0.595757 -0.513587 10.069299 -2.877453 -3.880501 -0.018764 -0.137640 41.019896 -66.225856 -28.993586 -0.304200 -28.818037 1.857683 0.000000 0.000000 0.000000 -0.116255 -0.324130 0.573123 3.831912 3.022615 1.763639 0.707611 3.493366 -1.560938 -4.283773 40.096561 67.532867 0.774889 22.283216 0.936369 0.000000 0.000000 0.000000 
0.757246 115.103241 0.001575 0.000000 0.000000 0.000000 0.678855 -8.903701 -0.416172 -13.593501 20.355326 14.851150 18.175289 8.756676 2.641537 -5.166685 4.228519 -12.860980 1.404265 0.153558 -0.982928 0.000000 0.000000 0.000000 1.222377 -7.622950 -0.392420 -22.398618 -19.431916 -9.888178 22.635986 7.076134 -3.154093 -2.872232 1.276162 2.662551 -1.359833 0.056882 0.987309 0.000000 0.000000 0.000000 0.704917 -10.182805 -0.920954 -0.731395 -0.701273 2.015750 -0.599073 -1.176764 0.973123 0.944925 0.506935 -0.518048 0.000000 0.000000 0.000000 -0.775091 -0.496542 0.876627 -6.189508 0.846223 0.322773 -1.110388 8.998066 -0.024448 0.000000 0.000000 0.000000 -0.770455 -0.311883 0.559157 -0.532034 10.055246 -2.687994 -3.776679 0.042068 -0.207207 39.773537 -66.817152 -29.933693 -0.306588 -29.045000 1.710427 0.000000 0.000000 0.000000 0.044065 -0.319693 0.567420 3.806981 3.127120 1.412193 0.388824 3.473596 -1.465457 -5.168614 41.624307 67.837261 0.609272 20.959318 0.762181 0.000000 0.000000 0.000000 
0.957036 115.044922 -0.014141 0.000000 0.000000 0.000000 0.785945 -9.148654 -0.111956 -13.467233 20.606732 14.559108 18.004754 8.707220 2.725945 -5.083761 4.200507 -12.536221 1.379112 0.137587 -1.008141 0.000000 0.000000 0.000000 1.286792 -7.742755 -0.109331 -22.849532 -19.143302 -10.315995 23.172721 7.139376 -3.170426 -3.040271 1.470954 2.806392 -1.542585 0.084682 0.919896 0.000000 0.000000 0.000000 0.700761 -10.336531 -0.711134 -0.691984 -0.540213 1.963714 -0.449346 -1.093367 0.883402 0.798301 0.458122 -0.496989 0.000000 0.000000 0.000000 -0.617164 -0.401965 0.760218 -6.570146 0.806833 0.172146 -1.152052 8.936544 -0.230477 0.000000 0.000000 0.000000 -0.610178 -0.254123 0.494633 -0.566479 9.953531 -2.437569 -3.768622 0.117009 -0.399231 38.416778 -67.568917 -30.734789 -0.282160 -29.018571 1.625960 0.000000 0.000000 0.000000 0.220363 -0.260508 0.495962 3.809225 3.227815 1.407406 0.162749 3.385303 -1.201605 -6.461304 42.927247 67.865470 0.464765 19.971430 0.672195 0.000000 0.000000 0.000000 
1.158580 114.976791 -0.079929 0.000000 0.000000 0.000000 0.820847 -9.425705 0.168376 -13.398074 20.832970 14.324411 17.865762 8.543176 2.776419 -4.962538 4.154012 -12.280386 1.322663 0.123057 -1.034428 0.000000 0.000000 0.000000 1.328860 -7.916187 0.146349 -23.225044 -18.779492 -10.654445 23.599361 7.086603 -3.169881 -3.226200 1.590072 2.894533 -1.606377 0.109806 0.848582 0.000000 0.000000 0.000000 0.691686 -10.418958 -0.530575 -0.602710 -0.223010 1.902534 -0.293442 -0.910229 0.747187 0.745967 0.689992 -0.453751 0.000000 0.000000 0.000000 -0.498192 -0.217975 0.593620 -6.997459 0.668937 0.182587 -1.337628 8.652062 -0.387140 0.000000 0.000000 0.000000 -0.496163 -0.086706 0.404839 -0.608346 9.748793 -2.129685 -3.932007 0.323041 -0.590198 37.364495 -68.439752 -31.098435 -0.202999 -28.657257 1.623211 0.000000 0.000000 0.000000 0.385213 -0.104308 0.370296 3.804342 3.331067 1.657243 0.273643 3.395565 -0.868523 -8.426911 44.032218 67.691020 0.321578 19.110939 0.588556 0.000000 0.000000 0.000000 
1.375739 114.920418 -0.226608 0.000000 0.000000 0.000000 0.788790 -9.812713 0.365163 -13.327204 21.045543 14.173046 17.813147 8.287102 2.779318 -4.861251 4.189279 -12.134366 1.227733 0.112469 -1.049968 0.000000 0.000000 0.000000 1.257749 -8.248753 0.320125 -23.574811 -18.329033 -10.891889 23.948624 6.902097 -3.116062 -3.271177 1.644618 2.909596 -1.494315 0.119678 0.789056 0.000000 0.000000 0.000000 0.693342 -10.533949 -0.418640 -0.488547 0.231423 1.826449 -0.149993 -0.636960 0.573185 0.885319 1.171075 -0.446860 0.000000 0.000000 0.000000 -0.419652 0.056643 0.405993 -7.431323 0.438034 0.355110 -1.690659 8.161595 -0.466913 0.000000 0.000000 0.000000 -0.420073 0.199524 0.299603 -0.646994 9.473736 -1.746997 -4.191981 0.659533 -0.772364 36.907986 -69.337758 -30.949329 -0.097363 -27.950457 1.671344 0.000000 0.000000 0.000000 0.504272 0.162761 0.204303 3.801630 3.402058 2.023073 0.549577 3.419492 -0.495149 -11.162131 45.469990 67.451998 0.164973 17.967366 0.481462 0.000000 0.000000 0.000000 
1.609391 114.866203 -0.374443 0.000000 0.000000 0.000000 0.680167 -10.425796 0.429491 -13.161646 21.292169 14.100482 17.854832 8.049838 2.750650 -4.934673 4.448146 -12.047592 1.107092 0.104476 -1.047934 0.000000 0.000000 0.000000 1.052757 -8.863589 0.375324 -23.969128 -17.791092 -11.048388 24.162274 6.672494 -2.971659 -2.971581 1.784974 2.993661 -1.310983 0.112301 0.747322 0.000000 0.000000 0.000000 0.646611 -10.810280 -0.407481 -0.345359 0.755929 1.737460 -0.038252 -0.312485 0.393804 1.107524 1.518453 -0.303773 0.000000 0.000000 0.000000 -0.379175 0.390715 0.236492 -7.797197 0.143828 0.696119 -2.136079 7.604677 -0.503099 0.000000 0.000000 0.000000 -0.371909 0.557096 0.194641 -0.670247 9.128841 -1.297345 -4.368725 1.050275 -0.898211 37.142948 -70.159997 -30.423814 -0.019078 -27.064485 1.705351 0.000000 0.000000 0.000000 0.552911 0.500983 0.036126 3.822830 3.414822 2.291877 0.879992 3.569629 -0.240998 -14.658851 47.779147 67.397711 -0.001098 16.453460 0.303548 0.000000 0.000000 0.000000 
1.872650 114.798111 -0.515072 0.000000 0.000000 0.000000 0.479524 -11.348341 0.338009 -12.760252 21.644542 14.053957 17.988432 7.940030 2.725448 -5.301635 5.050803 -11.919917 0.980656 0.097642 -1.029528 0.000000 0.000000 0.000000 0.747037 -9.852714 0.286719 -24.383861 -17.186088 -11.127350 24.150929 6.483004 -2.737374 -2.253931 2.154986 3.205974 -1.185734 0.100010 0.717980 0.000000 0.000000 0.000000 0.493230 -11.496644 -0.534852 -0.182389 1.258062 1.639741 0.015942 0.006889 0.230393 1.235372 1.737099 -0.182445 0.000000 0.000000 0.000000 -0.340307 0.720983 0.100410 -8.022343 -0.123372 1.158281 -2.581250 7.129570 -0.544892 0.000000 0.000000 0.000000 -0.340371 0.922314 0.102401 -0.685434 8.720757 -0.797768 -4.372864 1.339057 -0.994471 38.099963 -70.809295 -29.628613 0.029025 -26.313177 1.698733 0.000000 0.000000 0.000000 0.546397 0.846749 -0.111134 3.885726 3.357994 2.318494 1.293811 3.766118 -0.186046 -18.608285 51.549514 67.632465 -0.155190 15.102697 0.139153 0.000000 0.000000 0.000000 
